<svg width="39" height="39" viewBox="0 0 39 39" fill="none" xmlns="http://www.w3.org/2000/svg">
<path d="M5.31771 19.4996C5.31771 11.6677 11.667 5.31771 19.4996 5.31771V0C8.73002 0 0 8.73002 0 19.4996C0 30.2699 8.73002 38.9999 19.4996 38.9999V33.6814C11.667 33.6814 5.31771 27.3322 5.31771 19.4996Z" fill="white"/>
<path d="M19.4996 0V5.31771C27.3322 5.31771 33.6815 11.6677 33.6815 19.4996C33.6815 27.3322 27.3322 33.6814 19.4996 33.6814V38.9999C30.2691 38.9999 39 30.2699 39 19.4996C39 8.73002 30.2691 0 19.4996 0Z" fill="white"/>
<path d="M33.6803 19.4995C33.6803 27.3321 27.3311 33.6814 19.4985 33.6814C11.6658 33.6814 5.31653 27.3321 5.31653 19.4995C5.31653 11.6677 11.6658 5.31763 19.4985 5.31763C27.3311 5.31763 33.6803 11.6677 33.6803 19.4995Z" fill="#FFAB01"/>
<path d="M25.0526 20.1934C25.6803 19.685 26.1295 19.0011 26.3382 18.2359C26.8749 16.2991 25.8148 14.3427 23.972 13.8656L23.4394 13.7276L24.1914 11.0171C24.2106 10.9428 24.1992 10.8642 24.1596 10.7978C24.12 10.7315 24.0553 10.6825 23.9792 10.6613L23.0108 10.411C22.9339 10.3924 22.8525 10.4034 22.7838 10.4416C22.7151 10.4799 22.6644 10.5424 22.6425 10.616L21.8905 13.3265L20.3426 12.9263L21.0946 10.2148C21.1135 10.1405 21.1018 10.0621 21.0621 9.99589C21.0223 9.92972 20.9575 9.88102 20.8814 9.86002L19.9141 9.60967C19.8373 9.59139 19.7562 9.60252 19.6877 9.64074C19.6192 9.67895 19.5687 9.74129 19.5468 9.81468L18.7948 12.5252L15.6001 11.6992C15.5232 11.6793 15.4413 11.6898 15.3724 11.7282C15.3035 11.7667 15.2533 11.83 15.2327 11.9042L14.9705 12.8485C14.9515 12.9183 14.9596 12.9924 14.9932 13.0568C15.0268 13.1213 15.0837 13.1716 15.1531 13.1984C16.2163 13.5768 16.6051 14.4353 16.3643 15.3037L14.7572 21.0992C14.5409 21.8808 13.9512 22.3933 13.0155 22.2415C12.9512 22.2311 12.8852 22.2408 12.827 22.2692C12.7689 22.2975 12.7216 22.3431 12.6921 22.3992L12.2431 23.304C12.2242 23.342 12.2142 23.3836 12.2139 23.4257C12.2135 23.4679 12.2228 23.5096 12.241 23.5479C12.2592 23.5862 12.2859 23.6201 12.3193 23.6473C12.3526 23.6745 12.3918 23.6943 12.4339 23.7052L15.4745 24.4937L14.7215 27.2002C14.7114 27.2371 14.7088 27.2755 14.714 27.3132C14.7193 27.351 14.7321 27.3874 14.752 27.4204C14.7718 27.4533 14.7981 27.4822 14.8295 27.5053C14.8609 27.5284 14.8966 27.5453 14.9348 27.5551L15.9021 27.8054C15.9789 27.8237 16.06 27.8126 16.1285 27.7743C16.1969 27.7361 16.2474 27.6738 16.2694 27.6004L17.0214 24.8899L18.5703 25.2901L17.8183 28.0045C17.7991 28.0788 17.8104 28.1574 17.85 28.2238C17.8896 28.2902 17.9543 28.3391 18.0305 28.3603L18.9978 28.6107C19.0749 28.6292 19.1564 28.6181 19.2251 28.5796C19.2938 28.5412 19.3444 28.4785 19.3662 28.4047L20.1182 25.6942L21.4242 26.0323C23.269 26.5093 25.1923 25.3482 25.7229 23.4371C25.8837 22.8836 25.9068 22.3013 25.7903 21.7376C25.6738 21.1739 25.421 20.6448 25.0526 20.1934ZM19.7192 15.1667L22.0905 15.7797C22.5071 15.8954 22.8599 16.1645 23.0732 16.529C23.2865 16.8935 23.3432 17.3243 23.231 17.7287C23.1188 18.1332 22.8467 18.4789 22.4733 18.6915C22.0999 18.9042 21.6551 18.9667 21.2344 18.8657L18.8641 18.2517L19.7192 15.1667ZM20.764 23.5534L17.6193 22.7393L18.4744 19.6542L21.6201 20.4684C22.0436 20.578 22.4047 20.8457 22.6239 21.2125C22.8431 21.5793 22.9024 22.0153 22.7889 22.4244C22.6754 22.8335 22.3983 23.1822 22.0185 23.394C21.6388 23.6057 21.1875 23.6631 20.764 23.5534Z" fill="white"/>
</svg>
