<svg width="24" height="24" viewBox="0 0 24 24" fill="none" xmlns="http://www.w3.org/2000/svg">
<path d="M21.2188 9.8125C21.6503 9.8125 22 9.46277 22 9.03125V5.125C22 3.40182 20.5982 2 18.875 2H5.125C3.40182 2 2 3.40182 2 5.125V18.875C2 20.5982 3.40182 22 5.125 22H18.875C20.5982 22 22 20.5982 22 18.875V12.9766H21.9991C21.9992 12.9634 22 12.9506 22 12.9375C22 12.506 21.6503 12.1562 21.2188 12.1562C20.7872 12.1562 20.4375 12.506 20.4375 12.9375C20.4375 13.799 19.7365 14.5 18.875 14.5H5.125C4.26349 14.5 3.5625 13.799 3.5625 12.9375V5.125C3.5625 4.26349 4.26349 3.5625 5.125 3.5625H18.875C19.7365 3.5625 20.4375 4.26349 20.4375 5.125V9.03125C20.4375 9.46277 20.7872 9.8125 21.2188 9.8125ZM18.875 20.4375H5.125C4.26349 20.4375 3.5625 19.7365 3.5625 18.875V18.6499C4.02255 18.9167 4.556 19.0703 5.125 19.0703H18.875C19.444 19.0703 19.9774 18.9167 20.4375 18.6499V18.875C20.4375 19.7365 19.7365 20.4375 18.875 20.4375V20.4375ZM5.125 16.0625H18.875C19.444 16.0625 19.9774 15.9088 20.4375 15.6421V15.9453C20.4375 16.8068 19.7365 17.5078 18.875 17.5078H5.125C4.26349 17.5078 3.5625 16.8068 3.5625 15.9453V15.6421C4.02255 15.9088 4.556 16.0625 5.125 16.0625ZM18.9922 9.07031C18.9922 9.50183 18.6425 9.85156 18.2109 9.85156C17.7794 9.85156 17.4297 9.50183 17.4297 9.07031C17.4297 8.63879 17.7794 8.28906 18.2109 8.28906C18.6425 8.28906 18.9922 8.63879 18.9922 9.07031ZM5.78906 8.28906C6.22058 8.28906 6.57031 8.63879 6.57031 9.07031C6.57031 9.50183 6.22058 9.85156 5.78906 9.85156C5.35754 9.85156 5.00781 9.50183 5.00781 9.07031C5.00781 8.63879 5.35754 8.28906 5.78906 8.28906ZM11.7266 13.6406C12.1581 13.6406 12.5078 13.2909 12.5078 12.8594V12.6256H12.9988C13.5762 12.6256 14.1245 12.4019 14.5426 11.9959C14.9665 11.5842 15.2008 11.039 15.2031 10.4599C15.2031 10.4581 15.2031 10.4563 15.2031 10.4546C15.2031 10.454 15.2031 10.4534 15.2031 10.4529C15.2031 10.4523 15.2031 10.4517 15.2031 10.4511C15.2031 10.4494 15.2031 10.4476 15.2031 10.4459C15.2001 9.69302 14.8035 9.03003 14.2057 8.64429C14.2366 8.58005 14.2649 8.51398 14.2894 8.44592C14.3732 8.21399 14.4156 7.97061 14.4156 7.72266C14.4156 6.62418 13.5784 5.71735 12.5078 5.6055V5.35938C12.5078 4.92786 12.1581 4.57812 11.7266 4.57812C11.295 4.57812 10.9453 4.92786 10.9453 5.35938V5.59375H9.65625C9.22473 5.59375 8.875 5.94348 8.875 6.375C8.875 6.80652 9.22473 7.15625 9.65625 7.15625H9.85156V11.0631H9.65625C9.22473 11.0631 8.875 11.4128 8.875 11.8444C8.875 12.2759 9.22473 12.6256 9.65625 12.6256H10.9453V12.8594C10.9453 13.2909 11.295 13.6406 11.7266 13.6406ZM12.2844 7.15625C12.598 7.15625 12.8531 7.41031 12.8531 7.72266C12.8531 7.78918 12.842 7.85388 12.8199 7.91507C12.739 8.13876 12.5238 8.28906 12.2844 8.28906C12.2806 8.28906 12.2769 8.28952 12.2731 8.28967H11.4141V7.15625H12.2844ZM11.4141 9.85217H12.9988C13.3461 9.85217 13.6396 10.127 13.6406 10.4528C13.6396 10.7781 13.3402 11.0631 12.9988 11.0631H11.4141V9.85217Z" fill="#747B84"/>
</svg>
