<svg width="24" height="44" viewBox="0 0 24 44" fill="none" xmlns="http://www.w3.org/2000/svg">
<path d="M13.41 21.9999L19.71 15.7099C19.8983 15.5216 20.0041 15.2662 20.0041 14.9999C20.0041 14.7336 19.8983 14.4782 19.71 14.2899C19.5217 14.1016 19.2663 13.9958 19 13.9958C18.7337 13.9958 18.4783 14.1016 18.29 14.2899L12 20.5899L5.71 14.2899C5.5217 14.1016 5.2663 13.9958 5 13.9958C4.7337 13.9958 4.4783 14.1016 4.29 14.2899C4.1017 14.4782 3.99591 14.7336 3.99591 14.9999C3.99591 15.2662 4.1017 15.5216 4.29 15.7099L10.59 21.9999L4.29 28.2899C4.19627 28.3829 4.12188 28.4935 4.07111 28.6154C4.02034 28.7372 3.9942 28.8679 3.9942 28.9999C3.9942 29.132 4.02034 29.2627 4.07111 29.3845C4.12188 29.5064 4.19627 29.617 4.29 29.7099C4.38296 29.8037 4.49356 29.8781 4.61542 29.9288C4.73728 29.9796 4.86799 30.0057 5 30.0057C5.13201 30.0057 5.26272 29.9796 5.38458 29.9288C5.50644 29.8781 5.61704 29.8037 5.71 29.7099L12 23.4099L18.29 29.7099C18.383 29.8037 18.4936 29.8781 18.6154 29.9288C18.7373 29.9796 18.868 30.0057 19 30.0057C19.132 30.0057 19.2627 29.9796 19.3846 29.9288C19.5064 29.8781 19.617 29.8037 19.71 29.7099C19.8037 29.617 19.8781 29.5064 19.9289 29.3845C19.9797 29.2627 20.0058 29.132 20.0058 28.9999C20.0058 28.8679 19.9797 28.7372 19.9289 28.6154C19.8781 28.4935 19.8037 28.3829 19.71 28.2899L13.41 21.9999Z" fill="#09101D"/>
</svg>
