<svg width="26" height="26" viewBox="0 0 26 26" fill="none" xmlns="http://www.w3.org/2000/svg">
<circle cx="13" cy="13" r="12.5" stroke="#04CD70"/>
<path d="M17.2849 17.7314H8.84271L9.5161 18.3442C9.56757 18.3929 9.60875 18.4515 9.63721 18.5164C9.66567 18.5813 9.68083 18.6513 9.6818 18.7221C9.68277 18.793 9.66953 18.8633 9.64285 18.929C9.61617 18.9947 9.5766 19.0543 9.52648 19.1044L9.28758 19.3447C9.18812 19.4441 9.05321 19.5 8.91255 19.5C8.77188 19.5 8.63698 19.4441 8.53751 19.3447L6.70719 17.5243C6.6415 17.4586 6.5894 17.3807 6.55385 17.2948C6.5183 17.209 6.5 17.1171 6.5 17.0242C6.5 16.9313 6.5183 16.8393 6.55385 16.7535C6.5894 16.6677 6.6415 16.5897 6.70719 16.5241L8.53751 14.7037C8.63698 14.6042 8.77188 14.5483 8.91255 14.5483C9.05321 14.5483 9.18812 14.6042 9.28758 14.7037L9.52781 14.9439C9.57793 14.994 9.6175 15.0537 9.64417 15.1193C9.67085 15.185 9.6841 15.2553 9.68313 15.3262C9.68216 15.3971 9.667 15.467 9.63854 15.532C9.61008 15.5969 9.56889 15.6554 9.51742 15.7041L8.84271 16.317H17.2849C17.4256 16.317 17.5605 16.3729 17.6599 16.4723C17.7594 16.5718 17.8153 16.7067 17.8153 16.8474V17.201C17.8153 17.3416 17.7594 17.4766 17.6599 17.576C17.5605 17.6755 17.4256 17.7314 17.2849 17.7314Z" fill="#0757B5" fill-opacity="0.39"/>
<path d="M18.0552 13.1429L18.0561 13.142L20.7251 10.4865L18.0552 13.1429ZM18.0552 13.1429C18.0039 13.1942 17.9342 13.223 17.8617 13.223C17.7891 13.223 17.7195 13.1942 17.6681 13.1429C17.6681 13.1429 17.6681 13.1429 17.6681 13.1429L17.3177 12.7925L17.3177 12.7925M18.0552 13.1429L17.3177 12.7925M17.3177 12.7925C17.2918 12.7666 17.2714 12.7358 17.2577 12.7019C17.2439 12.6681 17.2371 12.6318 17.2376 12.5952C17.2381 12.5586 17.2459 12.5225 17.2606 12.489C17.2747 12.4567 17.295 12.4274 17.3203 12.4028L18.2997 11.5132L19.2577 10.6431M17.3177 12.7925L19.2577 10.6431M19.2577 10.6431H17.9635M19.2577 10.6431H17.9635M17.9635 10.6431H5.64882M17.9635 10.6431H5.64882M5.64882 10.6431C5.57623 10.6431 5.50662 10.6143 5.45529 10.563M5.64882 10.6431L5.45529 10.563M5.45529 10.563C5.40396 10.5116 5.37512 10.442 5.37512 10.3694L5.45529 10.563Z" fill="#04CD70" stroke="#04CD70"/>
</svg>
