<svg width="26" height="26" viewBox="0 0 26 26" fill="none" xmlns="http://www.w3.org/2000/svg">
<circle cx="13" cy="13" r="12.5" stroke="#0757B5"/>
<path d="M7.02275 16.3702L15.4645 16.2823L14.7848 15.6765C14.7328 15.6283 14.691 15.5702 14.6619 15.5056C14.6327 15.441 14.6168 15.3712 14.6151 15.3004C14.6134 15.2295 14.6259 15.159 14.6519 15.0931C14.6779 15.0271 14.7169 14.9671 14.7665 14.9164L15.0028 14.6737C15.1013 14.5733 15.2356 14.516 15.3762 14.5145C15.5169 14.513 15.6524 14.5675 15.7529 14.6659L17.602 16.4672C17.6684 16.5321 17.7213 16.6096 17.7578 16.695C17.7942 16.7804 17.8135 16.8722 17.8144 16.9651C17.8154 17.058 17.7981 17.1501 17.7634 17.2363C17.7288 17.3225 17.6775 17.401 17.6125 17.4673L15.8012 19.3067C15.7028 19.4072 15.5684 19.4644 15.4278 19.4659C15.2871 19.4674 15.1517 19.4129 15.0512 19.3145L14.8084 19.0768C14.7578 19.0272 14.7176 18.9679 14.6903 18.9026C14.6629 18.8372 14.6489 18.767 14.6492 18.6961C14.6494 18.6252 14.6638 18.5551 14.6916 18.4899C14.7194 18.4247 14.76 18.3657 14.8109 18.3165L15.4792 17.6966L7.03748 17.7845C6.89682 17.786 6.76133 17.7315 6.66083 17.6331C6.56033 17.5347 6.50305 17.4003 6.50159 17.2597L6.4979 16.9061C6.49644 16.7654 6.55091 16.63 6.64934 16.5295C6.74777 16.429 6.88209 16.3717 7.02275 16.3702Z" fill="#04CD70" fill-opacity="0.27"/>
<path d="M8.29229 10.6568L6.99908 10.6604L7.95838 11.5276L8.93942 12.4146C8.96479 12.4391 8.98518 12.4684 8.99946 12.5007C9.01424 12.5341 9.02216 12.5702 9.02277 12.6068C9.02337 12.6433 9.01664 12.6797 9.00296 12.7136C8.98929 12.7475 8.96896 12.7783 8.94317 12.8043L8.94267 12.8048L8.5947 13.1557C8.59467 13.1557 8.59464 13.1557 8.5946 13.1558C8.54343 13.2072 8.47394 13.2362 8.4014 13.2364C8.32881 13.2366 8.25912 13.208 8.20764 13.1568L8.20662 13.1558L5.53027 10.5098C5.53013 10.5097 5.52999 10.5095 5.52984 10.5094C5.48053 10.4602 5.44135 10.4019 5.41452 10.3377L4.95313 10.5303L5.41452 10.3377C5.38762 10.2732 5.37367 10.2041 5.37347 10.1343C5.37328 10.0645 5.38684 9.99532 5.41338 9.93074L4.95092 9.74066L5.41338 9.93073C5.43986 9.86632 5.47873 9.80774 5.52779 9.75831C5.52791 9.75819 5.52804 9.75806 5.52816 9.75793L8.18975 7.09495L8.19064 7.09406C8.24182 7.04259 8.31135 7.01356 8.38394 7.01336C8.45652 7.01316 8.52621 7.04179 8.57768 7.09296C8.57768 7.09297 8.57769 7.09297 8.57769 7.09297L8.92908 7.4424L8.9291 7.44242C8.95503 7.4682 8.97554 7.49893 8.9894 7.53277C9.00326 7.56662 9.0102 7.6029 9.0098 7.63947C9.0094 7.67605 9.00168 7.71217 8.98709 7.7457L9.44556 7.9452L8.98709 7.7457C8.97301 7.77806 8.9528 7.80738 8.92761 7.83206L7.95069 8.72439L6.99516 9.59719L8.28931 9.59356L20.604 9.55901C20.6766 9.55881 20.7462 9.58745 20.7977 9.63864C20.8492 9.68982 20.8782 9.75936 20.8784 9.83194L20.8799 10.3477C20.8801 10.4203 20.8514 10.49 20.8003 10.5415C20.7491 10.593 20.6795 10.622 20.6069 10.6222L8.29229 10.6568Z" fill="#0757B5" stroke="#0757B5"/>
</svg>
