<svg width="51" height="51" viewBox="0 0 51 51" fill="none" xmlns="http://www.w3.org/2000/svg">
<circle cx="25.5" cy="25.5" r="23" stroke="#04CD70" stroke-width="4"/>
<path d="M33.7402 34.599H17.5052L18.8002 35.7775C18.8992 35.8712 18.9784 35.9838 19.0331 36.1087C19.0878 36.2335 19.117 36.368 19.1189 36.5043C19.1207 36.6406 19.0952 36.7759 19.0439 36.9022C18.9926 37.0284 18.9165 37.1431 18.8202 37.2395L18.3607 37.7015C18.1695 37.8928 17.91 38.0002 17.6395 38.0002C17.369 38.0002 17.1096 37.8928 16.9183 37.7015L13.3984 34.2008C13.2721 34.0745 13.1719 33.9245 13.1036 33.7595C13.0352 33.5945 13 33.4176 13 33.239C13 33.0604 13.0352 32.8835 13.1036 32.7185C13.1719 32.5535 13.2721 32.4035 13.3984 32.2772L16.9183 28.7765C17.1096 28.5852 17.369 28.4778 17.6395 28.4778C17.91 28.4778 18.1695 28.5852 18.3607 28.7765L18.8227 29.2385C18.9191 29.3349 18.9952 29.4496 19.0465 29.5759C19.0978 29.7021 19.1233 29.8374 19.1214 29.9737C19.1195 30.11 19.0904 30.2445 19.0356 30.3694C18.9809 30.4942 18.9017 30.6068 18.8027 30.7005L17.5052 31.879H33.7402C34.0107 31.879 34.2702 31.9865 34.4614 32.1778C34.6527 32.369 34.7602 32.6285 34.7602 32.899V33.579C34.7602 33.8495 34.6527 34.109 34.4614 34.3003C34.2702 34.4915 34.0107 34.599 33.7402 34.599Z" fill="#0757B5" fill-opacity="0.39"/>
<mask id="path-3-inside-1_469_1474" fill="white">
<path d="M9.875 20.4412V19.4493C9.875 19.0547 10.0318 18.6762 10.3108 18.3972C10.5898 18.1182 10.9683 17.9614 11.3629 17.9614H35.045L33.1542 16.2423C33.0098 16.1056 32.8943 15.9413 32.8144 15.7593C32.7346 15.5772 32.692 15.3809 32.6893 15.1821C32.6866 14.9833 32.7238 14.786 32.7986 14.6018C32.8734 14.4176 32.9844 14.2502 33.125 14.1096L33.797 13.4358C34.0761 13.1567 34.4545 13 34.8491 13C35.2437 13 35.6221 13.1567 35.9012 13.4358L41.0356 18.5404C41.2199 18.7247 41.366 18.9434 41.4658 19.1841C41.5655 19.4248 41.6168 19.6828 41.6168 19.9434C41.6168 20.2039 41.5655 20.4619 41.4658 20.7027C41.366 20.9434 41.2199 21.1621 41.0356 21.3463L35.9012 26.4547C35.6221 26.7337 35.2437 26.8905 34.8491 26.8905C34.4545 26.8905 34.0761 26.7337 33.797 26.4547L33.1232 25.7808C32.9826 25.6403 32.8716 25.4729 32.7967 25.2887C32.7219 25.1045 32.6847 24.9072 32.6875 24.7084C32.6902 24.5096 32.7327 24.3133 32.8126 24.1312C32.8924 23.9491 33.0079 23.7849 33.1523 23.6482L35.045 21.9291H11.3629C10.9683 21.9291 10.5898 21.7723 10.3108 21.4933C10.0318 21.2143 9.875 20.8358 9.875 20.4412V20.4412Z"/>
</mask>
<path d="M9.875 20.4412V19.4493C9.875 19.0547 10.0318 18.6762 10.3108 18.3972C10.5898 18.1182 10.9683 17.9614 11.3629 17.9614H35.045L33.1542 16.2423C33.0098 16.1056 32.8943 15.9413 32.8144 15.7593C32.7346 15.5772 32.692 15.3809 32.6893 15.1821C32.6866 14.9833 32.7238 14.786 32.7986 14.6018C32.8734 14.4176 32.9844 14.2502 33.125 14.1096L33.797 13.4358C34.0761 13.1567 34.4545 13 34.8491 13C35.2437 13 35.6221 13.1567 35.9012 13.4358L41.0356 18.5404C41.2199 18.7247 41.366 18.9434 41.4658 19.1841C41.5655 19.4248 41.6168 19.6828 41.6168 19.9434C41.6168 20.2039 41.5655 20.4619 41.4658 20.7027C41.366 20.9434 41.2199 21.1621 41.0356 21.3463L35.9012 26.4547C35.6221 26.7337 35.2437 26.8905 34.8491 26.8905C34.4545 26.8905 34.0761 26.7337 33.797 26.4547L33.1232 25.7808C32.9826 25.6403 32.8716 25.4729 32.7967 25.2887C32.7219 25.1045 32.6847 24.9072 32.6875 24.7084C32.6902 24.5096 32.7327 24.3133 32.8126 24.1312C32.8924 23.9491 33.0079 23.7849 33.1523 23.6482L35.045 21.9291H11.3629C10.9683 21.9291 10.5898 21.7723 10.3108 21.4933C10.0318 21.2143 9.875 20.8358 9.875 20.4412V20.4412Z" fill="#04CD70"/>
<path d="M9.875 20.4412H5.875V24.4412H9.875V20.4412ZM9.875 19.4493H5.875H9.875ZM11.3629 17.9614V13.9614V17.9614ZM35.045 17.9614V21.9614H45.3907L37.7358 15.0018L35.045 17.9614ZM33.1542 16.2423L30.4042 19.147L30.4335 19.1748L30.4633 19.2019L33.1542 16.2423ZM33.125 14.1096L35.9533 16.9382L35.9574 16.9342L33.125 14.1096ZM33.797 13.4358L30.9687 10.6072L30.9647 10.6112L33.797 13.4358ZM34.8491 13V17V13ZM35.9012 13.4358L33.0728 16.2643L33.081 16.2724L35.9012 13.4358ZM41.0356 18.5404L43.8637 15.7117L43.8558 15.7038L41.0356 18.5404ZM41.0356 21.3463L43.8568 24.1819L43.8637 24.1751L41.0356 21.3463ZM35.9012 26.4547L33.0799 23.6191L33.0728 23.6262L35.9012 26.4547ZM34.8491 26.8905V30.8905V26.8905ZM33.797 26.4547L30.9686 29.2832L30.9687 29.2832L33.797 26.4547ZM33.1232 25.7808L35.9516 22.9524L35.9515 22.9523L33.1232 25.7808ZM33.1523 23.6482L30.4629 20.6873L30.4323 20.715L30.4023 20.7434L33.1523 23.6482ZM35.045 21.9291L37.7344 24.89L45.3982 17.9291H35.045V21.9291ZM11.3629 21.9291V25.9291V21.9291ZM9.875 20.4412H13.875V16.4412H9.875V20.4412ZM13.875 20.4412V19.4493H5.875V20.4412H13.875ZM13.875 19.4493C13.875 20.1155 13.6103 20.7545 13.1392 21.2256L7.48236 15.5688C6.45319 16.5979 5.875 17.9938 5.875 19.4493H13.875ZM13.1392 21.2256C12.6681 21.6967 12.0291 21.9614 11.3629 21.9614V13.9614C9.90741 13.9614 8.51154 14.5396 7.48236 15.5688L13.1392 21.2256ZM11.3629 21.9614H35.045V13.9614H11.3629V21.9614ZM37.7358 15.0018L35.845 13.2826L30.4633 19.2019L32.3542 20.921L37.7358 15.0018ZM35.9041 13.3375C36.1479 13.5683 36.3429 13.8456 36.4777 14.153L29.1511 17.3655C29.4456 18.0371 29.8717 18.6429 30.4042 19.147L35.9041 13.3375ZM36.4777 14.153C36.6125 14.4605 36.6844 14.7918 36.6889 15.1275L28.6897 15.2368C28.6997 15.97 28.8566 16.6939 29.1511 17.3655L36.4777 14.153ZM36.6889 15.1275C36.6935 15.4631 36.6308 15.7963 36.5044 16.1073L29.0927 13.0962C28.8167 13.7756 28.6797 14.5035 28.6897 15.2368L36.6889 15.1275ZM36.5044 16.1073C36.3781 16.4183 36.1907 16.7008 35.9533 16.9382L30.2967 11.2811C29.7782 11.7996 29.3688 12.4168 29.0927 13.0962L36.5044 16.1073ZM35.9574 16.9342L36.6294 16.2603L30.9647 10.6112L30.2927 11.2851L35.9574 16.9342ZM36.6254 16.2643C36.1543 16.7354 35.5153 17 34.8491 17V9C33.3937 9 31.9979 9.57814 30.9687 10.6072L36.6254 16.2643ZM34.8491 17C34.1829 17 33.5439 16.7354 33.0728 16.2643L38.7295 10.6072C37.7003 9.57814 36.3045 9 34.8491 9V17ZM33.081 16.2724L38.2154 21.3771L43.8558 15.7038L38.7214 10.5991L33.081 16.2724ZM38.2075 21.3692C38.0202 21.182 37.8717 20.9597 37.7703 20.715L45.1612 17.6531C44.8604 16.9271 44.4195 16.2674 43.8637 15.7117L38.2075 21.3692ZM37.7703 20.715C37.669 20.4704 37.6168 20.2082 37.6168 19.9434H45.6168C45.6168 19.1574 45.462 18.3792 45.1612 17.6531L37.7703 20.715ZM37.6168 19.9434C37.6168 19.6786 37.669 19.4163 37.7703 19.1717L45.1612 22.2336C45.462 21.5075 45.6168 20.7293 45.6168 19.9434H37.6168ZM37.7703 19.1717C37.8717 18.9271 38.0202 18.7048 38.2075 18.5176L43.8637 24.1751C44.4195 23.6194 44.8604 22.9597 45.1612 22.2336L37.7703 19.1717ZM38.2144 18.5107L33.0799 23.6191L38.7224 29.2903L43.8568 24.1819L38.2144 18.5107ZM33.0728 23.6262C33.5439 23.1551 34.1829 22.8905 34.8491 22.8905V30.8905C36.3045 30.8905 37.7003 30.3123 38.7295 29.2832L33.0728 23.6262ZM34.8491 22.8905C35.5153 22.8905 36.1543 23.1551 36.6254 23.6262L30.9687 29.2832C31.9979 30.3123 33.3937 30.8905 34.8491 30.8905V22.8905ZM36.6255 23.6263L35.9516 22.9524L30.2947 28.6093L30.9686 29.2832L36.6255 23.6263ZM35.9515 22.9523C36.1888 23.1896 36.3762 23.4722 36.5026 23.7832L29.0909 26.7943C29.3669 27.4737 29.7763 28.0909 30.2949 28.6094L35.9515 22.9523ZM36.5026 23.7832C36.6289 24.0942 36.6917 24.4274 36.6871 24.763L28.6878 24.6537C28.6778 25.387 28.8149 26.1148 29.0909 26.7943L36.5026 23.7832ZM36.6871 24.763C36.6825 25.0987 36.6107 25.43 36.4759 25.7375L29.1492 22.525C28.8547 23.1966 28.6979 23.9205 28.6878 24.6537L36.6871 24.763ZM36.4759 25.7375C36.3411 26.0449 36.146 26.3222 35.9023 26.553L30.4023 20.7434C29.8698 21.2476 29.4437 21.8534 29.1492 22.525L36.4759 25.7375ZM35.8417 26.6092L37.7344 24.89L32.3556 18.9681L30.4629 20.6873L35.8417 26.6092ZM35.045 17.9291H11.3629V25.9291H35.045V17.9291ZM11.3629 17.9291C12.0291 17.9291 12.6681 18.1938 13.1392 18.6649L7.48236 24.3217C8.51154 25.3509 9.90741 25.9291 11.3629 25.9291V17.9291ZM13.1392 18.6649C13.6103 19.136 13.875 19.7749 13.875 20.4412H5.875C5.875 21.8967 6.45319 23.2925 7.48236 24.3217L13.1392 18.6649ZM9.875 16.4412V16.4412V24.4412V24.4412V16.4412Z" fill="#04CD70" mask="url(#path-3-inside-1_469_1474)"/>
</svg>
