<svg width="290" height="52" viewBox="0 0 290 52" fill="none" xmlns="http://www.w3.org/2000/svg">
<path d="M73.8673 51.8122H12.5696C9.23892 51.8071 6.04605 50.5018 3.69016 48.1823C1.33427 45.8628 0.00735764 42.7181 0 39.4368V12.3754C0.00735063 9.09549 1.33317 5.95196 3.68734 3.63268C6.04152 1.31341 9.23235 0.00724165 12.5617 0H73.8593C77.1886 0.00724165 80.3795 1.31341 82.7336 3.63268C85.0878 5.95196 86.4136 9.09549 86.421 12.3754V39.4368C86.4136 42.7154 85.0889 45.8578 82.7365 48.1768C80.384 50.4959 77.1952 51.8029 73.8673 51.8122ZM12.5696 1.37069C9.6037 1.37171 6.75899 2.53021 4.65805 4.59265C2.55712 6.6551 1.37109 9.45352 1.35952 12.3754V39.4368C1.36268 42.3649 2.54475 45.1722 4.64636 47.2426C6.74798 49.3131 9.59747 50.4776 12.5696 50.4807H73.8673C76.838 50.4755 79.6855 49.3101 81.7854 47.2398C83.8853 45.1696 85.0663 42.3635 85.0694 39.4368V12.3754C85.0663 9.44736 83.8842 6.64011 81.7826 4.56966C79.681 2.4992 76.8315 1.33465 73.8593 1.33154H12.5696V1.37069Z" fill="#0757B5"/>
<path d="M51.2802 33.7974C52.274 31.056 51.4789 29.1762 48.736 28.3538C47.6739 28.0509 46.5804 27.867 45.4764 27.8055C43.7273 27.7272 41.9384 27.7663 40.1893 27.7663C40.0303 27.7663 39.8713 27.8055 39.7123 27.8055V37.0087H40.3086C41.6999 37.0087 43.0912 37.0479 44.4826 37.0087C45.4426 36.9951 46.4 36.9034 47.3447 36.7346C49.1018 36.3821 50.6124 35.5597 51.2802 33.7974Z" fill="#0757B5"/>
<path d="M46.3589 14.8427C45.6199 14.6332 44.8603 14.5019 44.093 14.451C42.6222 14.4119 41.1911 14.451 39.7203 14.451V22.871H40.3166C42.0656 22.871 43.8147 22.871 45.5638 22.8318C45.8627 22.8041 46.1567 22.7383 46.4384 22.636C48.3067 22.0094 49.4198 20.3646 49.38 18.289C49.2926 16.5658 48.3067 15.3909 46.3589 14.8427Z" fill="#0757B5"/>
<path d="M42.6222 42.609H39.8793V48.0135H42.6222V42.609Z" fill="#0757B5"/>
<path d="M39.6805 9.16408H42.4234V3.83794H39.7203V9.16408H39.6805Z" fill="#0757B5"/>
<path d="M73.8673 3.83794H47.2732V9.20324C48.3465 9.39905 49.38 9.5557 50.4136 9.79068C51.9949 10.1245 53.5115 10.7063 54.9056 11.5138C58.841 13.8244 59.1193 18.0932 57.6087 21.0695C57.0643 22.1573 56.2594 23.0982 55.2633 23.8109C55.1399 23.8806 55.0318 23.9738 54.9453 24.0851V24.1634C58.1255 25.2991 60.2323 27.4139 60.6299 30.7036C61.2262 35.4031 59.5963 40.5334 53.0372 42.0216C51.551 42.2837 50.0515 42.4668 48.5452 42.5698C48.148 42.5895 47.7499 42.5895 47.3527 42.5698V48.0135H73.8673C75.0107 48.014 76.143 47.7925 77.1994 47.3617C78.2559 46.9308 79.2158 46.2991 80.0243 45.5026C80.8328 44.7061 81.4741 43.7604 81.9114 42.7196C82.3487 41.6788 82.5735 40.5633 82.573 39.4368V12.3754C82.5656 10.1066 81.6448 7.93334 80.0126 6.3327C78.3804 4.73206 76.1703 3.83482 73.8673 3.83794Z" fill="#0757B5"/>
<path d="M34.9818 42.5699H26.2046V37.5179H29.4642C30.7761 37.5179 31.3326 37.0087 31.3326 35.7164V15.5867C31.3326 14.7643 30.9351 14.2944 30.1003 14.2161C28.868 14.1377 27.6356 14.1377 26.4033 14.0986H25.6878V9.20323H34.791V3.83794H12.5299C11.3865 3.83742 10.2542 4.05891 9.19771 4.48975C8.14125 4.92058 7.18134 5.55231 6.37283 6.34883C5.56433 7.14534 4.92309 8.09103 4.48578 9.13183C4.04846 10.1726 3.82363 11.2881 3.82416 12.4146V39.476C3.82363 40.6024 4.04846 41.7179 4.48578 42.7587C4.92309 43.7995 5.56433 44.7452 6.37283 45.5417C7.18134 46.3383 8.14125 46.97 9.19771 47.4008C10.2542 47.8316 11.3865 48.0531 12.5299 48.0526H34.9818V42.5699Z" fill="#0757B5"/>
<path d="M123.151 26.3172C125.013 26.6766 126.676 27.6967 127.826 29.1839C128.995 30.6285 129.619 32.4279 129.591 34.2751C129.591 37.0322 128.605 39.2253 126.633 40.8544C124.662 42.4836 121.943 43.2825 118.476 43.2512H102.877V10.2605H117.951C121.354 10.2605 124.004 11.0281 125.902 12.5633C127.799 14.0984 128.769 16.1871 128.812 18.8293C128.873 20.5764 128.31 22.2892 127.222 23.6698C126.183 24.9539 124.758 25.8807 123.151 26.3172ZM111.035 23.5758H116.393C117.718 23.5758 118.736 23.2939 119.446 22.7299C119.794 22.3922 120.07 21.9897 120.258 21.546C120.446 21.1023 120.543 20.6261 120.543 20.1452C120.543 19.6642 120.446 19.188 120.258 18.7443C120.07 18.3006 119.794 17.8982 119.446 17.5604C118.746 16.9652 117.729 16.6675 116.393 16.6675H111.043L111.035 23.5758ZM117.045 36.7345C118.413 36.7345 119.462 36.4369 120.193 35.8416C120.58 35.5113 120.884 35.098 121.082 34.6335C121.281 34.1691 121.368 33.6659 121.338 33.1629C121.367 32.6464 121.274 32.1304 121.067 31.655C120.86 31.1796 120.545 30.7575 120.146 30.4215C119.382 29.7635 118.322 29.4346 116.966 29.4346H111.043V36.7189L117.045 36.7345Z" fill="#0757B5"/>
<path d="M137.336 14.2943C136.045 14.3434 134.782 13.9066 133.806 13.0724C133.375 12.6764 133.034 12.1957 132.804 11.6613C132.574 11.127 132.46 10.551 132.47 9.97069C132.454 9.38953 132.565 8.8117 132.795 8.27649C133.026 7.74128 133.37 7.26124 133.806 6.869C134.769 6.00788 136.036 5.5524 137.336 5.60011C137.965 5.57634 138.593 5.67631 139.183 5.89416C139.773 6.11202 140.312 6.44342 140.771 6.869C141.218 7.25402 141.575 7.7316 141.814 8.26772C142.053 8.80383 142.169 9.38529 142.154 9.97069C142.163 10.5552 142.043 11.1347 141.805 11.6698C141.566 12.205 141.213 12.6833 140.771 13.0724C139.831 13.9053 138.599 14.3438 137.336 14.2943ZM141.391 17.0356V43.2747H133.249V17.0356H141.391Z" fill="#0757B5"/>
<path d="M162 36.4291V43.2434H157.862C154.905 43.2434 152.599 42.5384 150.945 41.1286C149.292 39.7187 148.472 37.3846 148.485 34.1263V23.6933H145.241V17.0356H148.485V10.6286H156.642V17.02H161.985V23.6776H156.622V34.2046C156.622 34.9879 156.813 35.5518 157.194 35.8964C157.576 36.2411 158.212 36.4134 159.103 36.4134L162 36.4291Z" fill="#0757B5"/>
<path d="M165.431 26.842C165.38 23.8298 166.137 20.8576 167.626 18.2262C169.022 15.7246 171.083 13.645 173.589 12.2108C176.158 10.7631 179.072 10.0168 182.032 10.049C185.657 10.049 188.822 10.9106 191.525 12.6337C194.249 14.3829 196.325 16.9553 197.44 19.965H192.24C191.4 18.0836 190.003 16.4951 188.233 15.4064C186.364 14.3007 184.212 13.7462 182.032 13.8086C179.841 13.775 177.681 14.3272 175.783 15.4064C173.924 16.4866 172.418 18.0684 171.442 19.965C170.344 22.0873 169.798 24.4448 169.852 26.8263C169.805 29.207 170.351 31.5628 171.442 33.6876C172.428 35.5646 173.933 37.1286 175.783 38.1992C177.681 39.2784 179.841 39.8306 182.032 39.797C184.207 39.8547 186.355 39.3121 188.233 38.2305C190.003 37.1418 191.4 35.5534 192.24 33.672H197.44C196.315 36.6637 194.24 39.2181 191.525 40.9562C188.822 42.6481 185.657 43.494 182.032 43.494C179.078 43.5271 176.167 42.798 173.589 41.3792C171.092 39.9542 169.032 37.8923 167.626 35.4108C166.145 32.7932 165.388 29.8383 165.431 26.842Z" fill="#0757B5"/>
<path d="M200.187 30.2726C200.131 27.8724 200.689 25.4968 201.808 23.3643C202.817 21.4355 204.354 19.8237 206.245 18.7118C208.175 17.6077 210.373 17.0393 212.605 17.067C214.689 17.0158 216.749 17.519 218.568 18.5238C220.14 19.384 221.443 20.6517 222.336 22.1895V17.4899H226.709V43.2434H222.336V38.4577C221.411 40.0278 220.077 41.3258 218.472 42.2173C216.67 43.2182 214.626 43.7215 212.557 43.6742C210.334 43.7049 208.146 43.1187 206.245 41.9823C204.349 40.8342 202.814 39.1913 201.808 37.2358C200.698 35.0803 200.141 32.6894 200.187 30.2726ZM222.32 30.3196C222.366 28.5506 221.956 26.799 221.128 25.2285C220.391 23.8465 219.265 22.704 217.884 21.9388C216.543 21.154 215.008 20.7475 213.448 20.7639C211.894 20.7465 210.363 21.1357 209.011 21.8918C207.657 22.6706 206.555 23.8111 205.831 25.1815C205.004 26.752 204.593 28.5036 204.639 30.2726C204.596 32.0664 205.006 33.8426 205.831 35.4421C206.562 36.8194 207.662 37.9733 209.011 38.7788C210.369 39.5187 211.896 39.9068 213.448 39.9068C215 39.9068 216.526 39.5187 217.884 38.7788C219.26 37.9866 220.384 36.8308 221.128 35.4421C221.95 33.8582 222.359 32.0981 222.32 30.3196Z" fill="#0757B5"/>
<path d="M235.164 21.6725C235.886 20.2439 237.013 19.0522 238.408 18.2418C239.999 17.3885 241.792 16.9669 243.604 17.02V21.4375H242.459C237.593 21.4375 235.16 24.0379 235.16 29.2388V43.2433H230.823V17.4899H235.164V21.6725Z" fill="#0757B5"/>
<path d="M245.665 30.2726C245.609 27.8723 246.167 25.4968 247.286 23.3643C248.295 21.4355 249.832 19.8237 251.723 18.7118C253.664 17.6064 255.873 17.0381 258.115 17.0669C260.098 17.054 262.052 17.5392 263.791 18.4768C265.441 19.2949 266.828 20.5475 267.798 22.0954V8.46679H272.171V43.2433H267.798V38.4028C266.894 39.9841 265.576 41.2984 263.982 42.2094C262.179 43.2103 260.136 43.7136 258.067 43.6663C255.837 43.7045 253.641 43.1202 251.733 41.981C249.825 40.8417 248.284 39.1938 247.286 37.2279C246.177 35.0748 245.621 32.6867 245.665 30.2726ZM267.798 30.3196C267.844 28.5505 267.434 26.799 266.606 25.2284C265.869 23.8465 264.743 22.704 263.362 21.9388C262.021 21.154 260.486 20.7475 258.926 20.7639C257.372 20.7465 255.841 21.1357 254.489 21.8918C253.135 22.6706 252.033 23.8111 251.309 25.1815C250.482 26.752 250.071 28.5036 250.117 30.2726C250.074 32.0664 250.484 33.8426 251.309 35.4421C252.041 36.8193 253.14 37.9732 254.489 38.7788C255.847 39.5187 257.374 39.9068 258.926 39.9068C260.478 39.9068 262.004 39.5187 263.362 38.7788C264.738 37.9866 265.862 36.8308 266.606 35.4421C267.428 33.8582 267.837 32.098 267.798 30.3196Z" fill="#0757B5"/>
<path d="M283.846 8.23869C285 8.23869 286.043 8.50279 286.975 9.03099C287.919 9.55919 288.66 10.2883 289.196 11.2184C289.732 12.137 290 13.159 290 14.2843C290 15.4096 289.726 16.443 289.178 17.3846C288.63 18.3146 287.884 19.0495 286.94 19.5892C285.996 20.1289 284.953 20.3987 283.811 20.3987C282.669 20.3987 281.626 20.1289 280.681 19.5892C279.749 19.0495 279.009 18.3146 278.461 17.3846C277.925 16.4545 277.657 15.4325 277.657 14.3187C277.657 13.2049 277.925 12.183 278.461 11.2529C279.009 10.3228 279.755 9.58789 280.699 9.04821C281.643 8.50853 282.692 8.23869 283.846 8.23869ZM283.811 19.2792C284.743 19.2792 285.588 19.061 286.346 18.6247C287.115 18.1769 287.715 17.574 288.147 16.8162C288.59 16.0468 288.811 15.2029 288.811 14.2843C288.811 13.3542 288.595 12.5159 288.164 11.7696C287.745 11.0232 287.156 10.4376 286.398 10.0127C285.641 9.57641 284.79 9.35824 283.846 9.35824C282.902 9.35824 282.051 9.57641 281.293 10.0127C280.536 10.4491 279.941 11.0462 279.51 11.804C279.079 12.5619 278.863 13.4001 278.863 14.3187C278.863 15.2373 279.079 16.0755 279.51 16.8334C279.941 17.5912 280.53 18.1883 281.276 18.6247C282.033 19.061 282.879 19.2792 283.811 19.2792ZM287.063 13.3542C287.063 13.8364 286.952 14.2556 286.731 14.6115C286.521 14.956 286.206 15.2258 285.787 15.421L287.273 17.6601H285.454L284.178 15.7311H282.972V17.6601H281.154V10.9773H284.108C285.029 10.9773 285.752 11.1955 286.276 11.6318C286.801 12.0566 287.063 12.6308 287.063 13.3542ZM283.986 14.3876C284.394 14.3876 284.708 14.3015 284.93 14.1292C285.163 13.9455 285.28 13.6872 285.28 13.3542C285.28 13.0212 285.163 12.7628 284.93 12.5791C284.708 12.3954 284.394 12.3035 283.986 12.3035H282.954V14.3876H283.986Z" fill="#0757B5"/>
</svg>
