<svg width="375" height="44" viewBox="0 0 375 44" fill="none" xmlns="http://www.w3.org/2000/svg">
<rect width="375" height="44" fill="white"/>
<path d="M33 20.9999H25.41L28.71 17.7099C28.8983 17.5216 29.0041 17.2662 29.0041 16.9999C29.0041 16.7336 28.8983 16.4782 28.71 16.2899C28.5217 16.1016 28.2663 15.9958 28 15.9958C27.7337 15.9958 27.4783 16.1016 27.29 16.2899L22.29 21.2899C22.199 21.385 22.1276 21.4972 22.08 21.6199C21.98 21.8634 21.98 22.1365 22.08 22.3799C22.1276 22.5027 22.199 22.6148 22.29 22.7099L27.29 27.7099C27.383 27.8037 27.4936 27.8781 27.6154 27.9288C27.7373 27.9796 27.868 28.0057 28 28.0057C28.132 28.0057 28.2627 27.9796 28.3846 27.9288C28.5065 27.8781 28.6171 27.8037 28.71 27.7099C28.8037 27.617 28.8781 27.5064 28.9289 27.3845C28.9797 27.2627 29.0058 27.132 29.0058 26.9999C29.0058 26.8679 28.9797 26.7372 28.9289 26.6154C28.8781 26.4935 28.8037 26.3829 28.71 26.2899L25.41 22.9999H33C33.2652 22.9999 33.5196 22.8946 33.7071 22.707C33.8947 22.5195 34 22.2652 34 21.9999C34 21.7347 33.8947 21.4804 33.7071 21.2928C33.5196 21.1053 33.2652 20.9999 33 20.9999Z" fill="#09101D"/>
</svg>
