<svg width="20" height="20" viewBox="0 0 20 20" fill="none" xmlns="http://www.w3.org/2000/svg">
<path d="M19.4111 11.5896L18.5527 10.9047C17.9646 10.4355 17.9657 9.56352 18.5527 9.09527L19.4111 8.41035C20.0219 7.92289 20.1782 7.08703 19.7826 6.42277L18.0876 3.57723C17.6919 2.91301 16.8667 2.62629 16.1259 2.89527L15.0847 3.27336C14.3715 3.53227 13.5929 3.09559 13.4679 2.36863L13.2851 1.30559C13.1551 0.549102 12.4863 0 11.695 0H8.30503C7.5137 0 6.84493 0.549102 6.71487 1.30562L6.53206 2.36863C6.40685 3.09688 5.62716 3.53184 4.91531 3.2734L3.87411 2.89527C3.13324 2.62629 2.30817 2.91305 1.91245 3.57723L0.217469 6.42273C-0.178176 7.08691 -0.0219654 7.92281 0.588972 8.41031L1.44736 9.09523C2.03545 9.56445 2.03428 10.4364 1.44736 10.9047L0.588932 11.5896C-0.0219653 12.0771 -0.178216 12.913 0.217428 13.5772L1.91245 16.4227C2.30813 17.0869 3.13304 17.3737 3.87411 17.1047L4.91527 16.7266C5.62857 16.4676 6.40705 16.9046 6.53202 17.6313L6.71483 18.6943C6.84493 19.4509 7.5137 20 8.30499 20H11.695C12.4863 20 13.155 19.4509 13.2851 18.6944L13.4679 17.6314C13.5931 16.9034 14.3727 16.4681 15.0847 16.7267L16.1259 17.1047C16.8669 17.3738 17.6919 17.087 18.0876 16.4228L19.7826 13.5772C20.1782 12.913 20.0219 12.0771 19.4111 11.5896V11.5896ZM16.6915 15.6415L15.6503 15.2634C13.9858 14.6591 12.1694 15.6787 11.8778 17.3745L11.695 18.4375H8.30503L8.12222 17.3745C7.83007 15.6754 6.01096 14.6603 4.34975 15.2634L3.30855 15.6415L1.61357 12.796L2.47196 12.1111C3.8442 11.0161 3.84134 8.9816 2.47196 7.88895L1.61357 7.20402L3.30859 4.35848L4.34975 4.73656C6.01422 5.34086 7.83063 4.32133 8.12222 2.62551L8.30499 1.5625H11.695L11.8778 2.62551C12.1699 4.3248 13.9891 5.33961 15.6502 4.73656L16.6914 4.35848L18.3868 7.20363C18.3868 7.20363 18.3867 7.20375 18.3864 7.20398L17.528 7.88891C16.1558 8.98375 16.1586 11.0183 17.528 12.111L18.3864 12.7959L16.6915 15.6415ZM10 6.14582C7.80738 6.14582 6.02353 7.8748 6.02353 10C6.02353 12.1252 7.80738 13.8542 10 13.8542C12.1926 13.8542 13.9765 12.1252 13.9765 10C13.9765 7.8748 12.1926 6.14582 10 6.14582ZM10 12.2917C8.69628 12.2917 7.63561 11.2636 7.63561 10C7.63561 8.73637 8.69628 7.70832 10 7.70832C11.3037 7.70832 12.3644 8.73637 12.3644 10C12.3644 11.2636 11.3037 12.2917 10 12.2917Z" fill="#747B84"/>
</svg>
