<svg width="24" height="24" viewBox="0 0 24 24" fill="none" xmlns="http://www.w3.org/2000/svg">
<path d="M21.1667 10.5H20.3333V7.16667C20.3333 6.94565 20.2455 6.73369 20.0893 6.57741C19.933 6.42113 19.721 6.33333 19.5 6.33333H16.1667V3.83333C16.1667 3.61232 16.0789 3.40036 15.9226 3.24408C15.7663 3.0878 15.5543 3 15.3333 3H4.5C3.83718 3.00073 3.20172 3.26435 2.73304 3.73304C2.26435 4.20172 2.00073 4.83718 2 5.5V18.8333C2.00073 19.4962 2.26435 20.1316 2.73304 20.6003C3.20172 21.069 3.83718 21.3326 4.5 21.3333H19.5C19.721 21.3333 19.933 21.2455 20.0893 21.0893C20.2455 20.933 20.3333 20.721 20.3333 20.5V17.1667H21.1667C21.3877 17.1667 21.5996 17.0789 21.7559 16.9226C21.9122 16.7663 22 16.5543 22 16.3333V11.3333C22 11.1123 21.9122 10.9004 21.7559 10.7441C21.5996 10.5878 21.3877 10.5 21.1667 10.5ZM4.5 4.66667H14.5V6.33333H4.5C4.27899 6.33333 4.06702 6.24554 3.91074 6.08926C3.75446 5.93298 3.66667 5.72101 3.66667 5.5C3.66667 5.27899 3.75446 5.06702 3.91074 4.91074C4.06702 4.75446 4.27899 4.66667 4.5 4.66667ZM18.6667 19.6667H4.5C4.27907 19.6664 4.06728 19.5785 3.91106 19.4223C3.75484 19.2661 3.66695 19.0543 3.66667 18.8333V7.85717C3.93585 7.94574 4.21669 7.99387 4.5 8H18.6667V10.5H17.8333C16.9493 10.5 16.1014 10.8512 15.4763 11.4763C14.8512 12.1014 14.5 12.9493 14.5 13.8333C14.5 14.7174 14.8512 15.5652 15.4763 16.1904C16.1014 16.8155 16.9493 17.1667 17.8333 17.1667H18.6667V19.6667ZM20.3333 15.5H17.8333C17.3913 15.5 16.9674 15.3244 16.6548 15.0118C16.3423 14.6993 16.1667 14.2754 16.1667 13.8333C16.1667 13.3913 16.3423 12.9674 16.6548 12.6548C16.9674 12.3423 17.3913 12.1667 17.8333 12.1667H20.3333V15.5Z" fill="#495057"/>
<path d="M17.8333 14.6667C18.2936 14.6667 18.6667 14.2936 18.6667 13.8333C18.6667 13.3731 18.2936 13 17.8333 13C17.3731 13 17 13.3731 17 13.8333C17 14.2936 17.3731 14.6667 17.8333 14.6667Z" fill="#495057"/>
</svg>
